<?xml version="1.0" encoding="utf-8"?>
<!-- Generator: Adobe Illustrator 19.0.0, SVG Export Plug-In . SVG Version: 6.00 Build 0)  -->
<svg version="1.1" id="Layer_1" xmlns="http://www.w3.org/2000/svg" xmlns:xlink="http://www.w3.org/1999/xlink" x="0px" y="0px"
	 viewBox="0 0 162.3 38" style="enable-background:new 0 0 162.3 38;" xml:space="preserve">
<style type="text/css">
	.st0{fill:#FDE000;}
	.st1{fill:#2BACE2;}
</style>
<g id="XMLID_11_">
	<path id="XMLID_133_" class="st0" d="M162.3,15.1c0,8.4-7,15.1-15.6,15.1c-8.6,0-15.6-6.8-15.6-15.1c0-8.4,7-15.1,15.6-15.1
		C155.4,0,162.3,6.8,162.3,15.1"/>
	<path id="XMLID_131_" class="st0" d="M31.1,15.1c0,8.4-7,15.1-15.6,15.1C7,30.3,0,23.5,0,15.1C0,6.8,7,0,15.6,0
		C24.2,0,31.1,6.8,31.1,15.1"/>
	<path id="XMLID_127_" class="st0" d="M63.9,22.9c0,8.4-7,15.1-15.6,15.1c-8.6,0-15.6-6.8-15.6-15.1c0-8.4,7-15.1,15.6-15.1
		C57,7.7,63.9,14.5,63.9,22.9"/>
	<path id="XMLID_126_" class="st0" d="M96.7,15.1c0,8.4-7,15.1-15.6,15.1c-8.6,0-15.6-6.8-15.6-15.1c0-8.4,7-15.1,15.6-15.1
		C89.8,0,96.7,6.8,96.7,15.1"/>
	<path id="XMLID_125_" class="st0" d="M129.5,22.9c0,8.4-7,15.1-15.6,15.1c-8.6,0-15.6-6.8-15.6-15.1c0-8.4,7-15.1,15.6-15.1
		C122.6,7.7,129.5,14.5,129.5,22.9"/>
	<path id="XMLID_122_" class="st1" d="M45,22.9c0,1.9,1.4,3.4,3.3,3.4c1.9,0,3.3-1.4,3.3-3.3c0-1.9-1.4-3.4-3.3-3.4
		C46.5,19.5,45.1,20.9,45,22.9 M48.3,28.7c-3.5,0-6.2-2.6-6.2-6c0-3.3,2.8-5.9,6.3-5.8c3.3,0,6.1,2.5,6,5.9
		C54.5,26.2,51.8,28.8,48.3,28.7"/>
	<polygon id="XMLID_119_" class="st1" points="10.4,9.5 20.7,9.5 20.7,11.9 17,11.9 17,20.8 14.1,20.8 14.1,11.9 10.4,11.9 	"/>
	<rect id="XMLID_118_" x="112.6" y="17.2" class="st1" width="2.8" height="11.3"/>
	<path id="XMLID_116_" class="st1" d="M83.9,9.5v6.6l-5.5-6.3c-0.1-0.1-0.1-0.2-0.2-0.2c0,0,0,0,0,0L78,9.5h-1.2l0,0
		c-0.4,0-0.8,0-1.2,0v11.3h2.9v-6.5l1.3,1.5c0.3,0.3,0.6,0.7,0.9,1c1.1,1.3,2.2,2.5,3.4,3.8c0,0,0,0,0,0l0.2,0.2h1.2l0,0
		c0.4,0,0.8,0,1.1,0V9.5H83.9z"/>
	<path id="XMLID_109_" class="st1" d="M145.1,18c-1-0.6-1.5-1.7-1.5-2.8c0-1.1,0.6-2.2,1.5-2.8c1.6-1,3.7-0.5,4.5,1.1h3.1
		c0-0.2-0.1-0.3-0.1-0.5c-1-2.8-4.1-4.1-7-3.5c-2.6,0.5-4.5,2.6-4.8,5.1c0,0.2,0,0.5,0,0.7c0,0,0,0,0,0c0,0,0,0,0,0
		c0,0.2,0,0.5,0,0.7c0.3,2.5,2.2,4.6,4.8,5.1c2.9,0.6,6-0.7,7-3.5c0.1-0.1,0.1-0.3,0.1-0.5h-3.1C148.8,18.5,146.8,19,145.1,18z"/>
</g>
</svg>
